<?xml version="1.0" encoding="UTF-8"?>
<svg xmlns="http://www.w3.org/2000/svg" viewBox="0 0 900 1100" role="img" aria-label="半前屈伸展真人示范图">
  <defs>
    <linearGradient id="bg" x1="0" x2="1" y1="0" y2="1">
      <stop offset="0" stop-color="#FFFFFF"/>
      <stop offset="0.56" stop-color="#F8FBFF"/>
      <stop offset="1" stop-color="#EAF8F7"/>
    </linearGradient>
    <linearGradient id="wear" x1="0" x2="1" y1="0" y2="1">
      <stop offset="0" stop-color="#6AC4BE"/>
      <stop offset="1" stop-color="#5368D8"/>
    </linearGradient>
    <filter id="shadow" x="-20%" y="-20%" width="140%" height="140%">
      <feDropShadow dx="0" dy="24" stdDeviation="22" flood-color="#5368D8" flood-opacity=".14"/>
    </filter>
  </defs>
  <rect width="900" height="1100" rx="0" fill="url(#bg)"/>
  <path d="M172 178 C238 120 330 104 404 140 C516 194 614 102 728 168 C824 224 808 362 752 420 C666 510 744 636 650 734 C560 828 432 780 342 824 C238 874 130 796 150 680 C168 574 96 494 128 386 C152 300 106 242 172 178Z" fill="#DCE6F8" opacity=".38"/>
  <path d="M278 848 C428 810 578 810 728 848" fill="none" stroke="#6AC4BE" stroke-width="34" stroke-linecap="round" opacity=".22"/>
  <g filter="url(#shadow)">
    <g fill="none" stroke="#F6B99B" stroke-width="50" stroke-linecap="round" stroke-linejoin="round"><path d="M438 334 L386 820" /><path d="M438 334 L486 820" /></g>
    <g fill="none" stroke="#F6B99B" stroke-width="44" stroke-linecap="round" stroke-linejoin="round"><path d="M514 420 C626 442 706 476 770 524" /><path d="M500 452 C594 498 652 552 704 620" /></g>
    <path d="M438 334 C520 412 606 486 690 548" fill="none" stroke="url(#wear)" stroke-width="72" stroke-linecap="round" stroke-linejoin="round"/>
    <circle cx="690" cy="548" r="41" fill="#F6B99B"/>
    <path d="M671.55 529.96 C685.9 514.38 712.14 529.14 707.22 552.92" fill="none" stroke="#27324A" stroke-width="14" stroke-linecap="round" opacity=".32"/>
  </g>
  <g fill="#FFFFFF" stroke="#6AC4BE" stroke-width="6" opacity=".88">
    <circle cx="690" cy="623" r="12"/>
  </g>
  <rect x="96" y="86" width="300" height="74" rx="37" fill="#FFFFFF" opacity=".9"/>
  <text x="246" y="132" text-anchor="middle" font-size="29" font-weight="700" font-family="PingFang SC, Microsoft YaHei, sans-serif" fill="#27324A">半前屈伸展</text>
  <rect x="96" y="910" width="708" height="104" rx="34" fill="#FFFFFF" opacity=".9"/>
  <text x="450" y="966" text-anchor="middle" font-size="34" font-weight="700" font-family="PingFang SC, Microsoft YaHei, sans-serif" fill="#5368D8">背部拉长膝盖微屈</text>
</svg>
